<!-- icon666.com - MILLIONS OF FREE VECTOR ICONS --><svg id="Icons" viewBox="0 0 70 70" xmlns="http://www.w3.org/2000/svg"><path d="m12.7 16.7h-3.06a1 1 0 0 0 0 2h3.06a3.61 3.61 0 0 0 2.48-6.23 3.57 3.57 0 0 0 1.12-2.6 3.61 3.61 0 0 0 -3.6-3.62h-3.06a1 1 0 0 0 0 2h3.06a1.61 1.61 0 0 1 0 3.22h-3.06a1 1 0 0 0 0 2h3.06a1.62 1.62 0 0 1 0 3.23z"></path><path d="m68.5.5h-67a1 1 0 0 0 -1 1v67a1 1 0 0 0 1 1h67a1 1 0 0 0 1-1v-67a1 1 0 0 0 -1-1zm-44 45.05v-21.1h21.1v21.1zm21.1 2v20h-21.15v-20zm-43-23.1h20v21.1h-20.1zm22-2v-19.95h21.1v20zm23.1 2h20v21.1h-20zm20-2h-20v-19.95h20zm-45.25-19.95v20h-19.95v-20zm-19.95 45.05h20v20h-20zm45.05 20v-20h20v20z"></path><path d="m37.05 34h-4.05a3 3 0 0 0 -1 .18v-2.67a1 1 0 0 1 1-1h5.1a1 1 0 0 0 0-2h-5.1a3 3 0 0 0 -3 3v7a3 3 0 0 0 3 3h4.1a3 3 0 0 0 3-3v-1.51a3 3 0 0 0 -3.05-3zm1 4.49a1 1 0 0 1 -1 1h-4.05a1 1 0 0 1 -1-1v-1.49a1 1 0 0 1 1-1h4.1a1 1 0 0 1 1 1z"></path><path d="m60.88 51.83h-6.71a1 1 0 0 0 0 2h5l-4.17 7.91a1 1 0 0 0 .41 1.36 1 1 0 0 0 .47.11 1 1 0 0 0 .88-.52l5-9.38a1 1 0 0 0 0-1 1 1 0 0 0 -.88-.48z"></path></svg>